<svg xmlns="http://www.w3.org/2000/svg" viewBox="0 0 900 330" width="100%" font-family="Source Sans 3, Source Sans Pro, Helvetica, Arial, sans-serif" font-size="15">
<rect width="900" height="330" fill="#ffffff"/>
<text x="56" y="24" font-size="18" font-weight="600" fill="#1b1b1b">Brian Wansink: publications per year</text>
<line x1="56" x2="876" y1="280.0" y2="280.0" stroke="#dcdcd6" stroke-width="1"/>
<text x="48" y="285.0" text-anchor="end" fill="#6b6b6b">0</text>
<line x1="56" x2="876" y1="236.0" y2="236.0" stroke="#dcdcd6" stroke-width="1"/>
<text x="48" y="241.0" text-anchor="end" fill="#6b6b6b">25</text>
<line x1="56" x2="876" y1="192.0" y2="192.0" stroke="#dcdcd6" stroke-width="1"/>
<text x="48" y="197.0" text-anchor="end" fill="#6b6b6b">50</text>
<line x1="56" x2="876" y1="148.0" y2="148.0" stroke="#dcdcd6" stroke-width="1"/>
<text x="48" y="153.0" text-anchor="end" fill="#6b6b6b">75</text>
<line x1="56" x2="876" y1="104.0" y2="104.0" stroke="#dcdcd6" stroke-width="1"/>
<text x="48" y="109.0" text-anchor="end" fill="#6b6b6b">100</text>
<line x1="56" x2="876" y1="60.0" y2="60.0" stroke="#dcdcd6" stroke-width="1"/>
<text x="48" y="65.0" text-anchor="end" fill="#6b6b6b">125</text>
<rect x="57.0" y="273.0" width="24.5" height="7.0" fill="#7a7a74" rx="2"/>
<rect x="83.5" y="274.7" width="24.5" height="5.3" fill="#7a7a74" rx="2"/>
<rect x="109.9" y="273.0" width="24.5" height="7.0" fill="#7a7a74" rx="2"/>
<rect x="136.4" y="273.0" width="24.5" height="7.0" fill="#7a7a74" rx="2"/>
<rect x="162.8" y="264.2" width="24.5" height="15.8" fill="#7a7a74" rx="2"/>
<text x="175.0" y="300" text-anchor="middle" fill="#6b6b6b">2000</text>
<rect x="189.3" y="251.8" width="24.5" height="28.2" fill="#7a7a74" rx="2"/>
<rect x="215.7" y="241.3" width="24.5" height="38.7" fill="#7a7a74" rx="2"/>
<rect x="242.2" y="232.5" width="24.5" height="47.5" fill="#7a7a74" rx="2"/>
<rect x="268.6" y="237.8" width="24.5" height="42.2" fill="#7a7a74" rx="2"/>
<rect x="295.1" y="255.4" width="24.5" height="24.6" fill="#7a7a74" rx="2"/>
<text x="307.3" y="300" text-anchor="middle" fill="#6b6b6b">2005</text>
<rect x="321.5" y="232.5" width="24.5" height="47.5" fill="#7a7a74" rx="2"/>
<rect x="348.0" y="232.5" width="24.5" height="47.5" fill="#7a7a74" rx="2"/>
<rect x="374.4" y="232.5" width="24.5" height="47.5" fill="#7a7a74" rx="2"/>
<rect x="400.9" y="251.8" width="24.5" height="28.2" fill="#7a7a74" rx="2"/>
<rect x="427.3" y="214.9" width="24.5" height="65.1" fill="#7a7a74" rx="2"/>
<text x="439.5" y="300" text-anchor="middle" fill="#6b6b6b">2010</text>
<rect x="453.8" y="176.2" width="24.5" height="103.8" fill="#7a7a74" rx="2"/>
<rect x="480.2" y="137.4" width="24.5" height="142.6" fill="#7a7a74" rx="2"/>
<rect x="506.7" y="169.1" width="24.5" height="110.9" fill="#7a7a74" rx="2"/>
<rect x="533.1" y="70.6" width="24.5" height="209.4" fill="#7a7a74" rx="2"/>
<rect x="559.6" y="162.1" width="24.5" height="117.9" fill="#7a7a74" rx="2"/>
<text x="571.8" y="300" text-anchor="middle" fill="#6b6b6b">2015</text>
<rect x="586.0" y="162.1" width="24.5" height="117.9" fill="#7a7a74" rx="2"/>
<rect x="612.5" y="176.2" width="24.5" height="103.8" fill="#7a7a74" rx="2"/>
<rect x="638.9" y="250.1" width="24.5" height="29.9" fill="#7a7a74" rx="2"/>
<rect x="665.4" y="264.2" width="24.5" height="15.8" fill="#7a7a74" rx="2"/>
<rect x="691.8" y="278.2" width="24.5" height="1.8" fill="#7a7a74" rx="2"/>
<text x="704.1" y="300" text-anchor="middle" fill="#6b6b6b">2020</text>
<rect x="718.3" y="274.7" width="24.5" height="5.3" fill="#7a7a74" rx="2"/>
<rect x="744.7" y="276.5" width="24.5" height="3.5" fill="#7a7a74" rx="2"/>
<rect x="771.2" y="274.7" width="24.5" height="5.3" fill="#7a7a74" rx="2"/>
<rect x="797.6" y="278.2" width="24.5" height="1.8" fill="#7a7a74" rx="2"/>
<rect x="824.1" y="278.2" width="24.5" height="1.8" fill="#7a7a74" rx="2"/>
<text x="836.3" y="300" text-anchor="middle" fill="#6b6b6b">2025</text>
<line x1="624.7" x2="624.7" y1="56" y2="280" stroke="#b31b1b" stroke-width="2" stroke-dasharray="6 4"/>
<text x="616.7" y="52" text-anchor="end" fill="#b31b1b" font-weight="600">exposed 2017</text>
<text x="56" y="324" fill="#6b6b6b" font-size="12">Source: OpenAlex, works by publication year, fetched 15 Sep 2026</text>
</svg>