<svg xmlns="http://www.w3.org/2000/svg" viewBox="0 0 900 330" width="100%" font-family="Source Sans 3, Source Sans Pro, Helvetica, Arial, sans-serif" font-size="15">
<rect width="900" height="330" fill="#ffffff"/>
<text x="56" y="24" font-size="18" font-weight="600" fill="#1b1b1b">Francesca Gino: publications per year</text>
<line x1="56" x2="876" y1="280.0" y2="280.0" stroke="#dcdcd6" stroke-width="1"/>
<text x="48" y="285.0" text-anchor="end" fill="#6b6b6b">0</text>
<line x1="56" x2="876" y1="225.0" y2="225.0" stroke="#dcdcd6" stroke-width="1"/>
<text x="48" y="230.0" text-anchor="end" fill="#6b6b6b">10</text>
<line x1="56" x2="876" y1="170.0" y2="170.0" stroke="#dcdcd6" stroke-width="1"/>
<text x="48" y="175.0" text-anchor="end" fill="#6b6b6b">20</text>
<line x1="56" x2="876" y1="115.0" y2="115.0" stroke="#dcdcd6" stroke-width="1"/>
<text x="48" y="120.0" text-anchor="end" fill="#6b6b6b">30</text>
<line x1="56" x2="876" y1="60.0" y2="60.0" stroke="#dcdcd6" stroke-width="1"/>
<text x="48" y="65.0" text-anchor="end" fill="#6b6b6b">40</text>
<rect x="57.0" y="269.0" width="30.8" height="11.0" fill="#7a7a74" rx="2"/>
<rect x="122.6" y="274.5" width="30.8" height="5.5" fill="#7a7a74" rx="2"/>
<rect x="155.4" y="252.5" width="30.8" height="27.5" fill="#7a7a74" rx="2"/>
<text x="170.8" y="300" text-anchor="middle" fill="#6b6b6b">2005</text>
<rect x="188.2" y="236.0" width="30.8" height="44.0" fill="#7a7a74" rx="2"/>
<rect x="221.0" y="263.5" width="30.8" height="16.5" fill="#7a7a74" rx="2"/>
<rect x="253.8" y="170.0" width="30.8" height="110.0" fill="#7a7a74" rx="2"/>
<rect x="286.6" y="186.5" width="30.8" height="93.5" fill="#7a7a74" rx="2"/>
<rect x="319.4" y="148.0" width="30.8" height="132.0" fill="#7a7a74" rx="2"/>
<text x="334.8" y="300" text-anchor="middle" fill="#6b6b6b">2010</text>
<rect x="352.2" y="65.5" width="30.8" height="214.5" fill="#7a7a74" rx="2"/>
<rect x="385.0" y="170.0" width="30.8" height="110.0" fill="#7a7a74" rx="2"/>
<rect x="417.8" y="120.5" width="30.8" height="159.5" fill="#7a7a74" rx="2"/>
<rect x="450.6" y="109.5" width="30.8" height="170.5" fill="#7a7a74" rx="2"/>
<rect x="483.4" y="93.0" width="30.8" height="187.0" fill="#7a7a74" rx="2"/>
<text x="498.8" y="300" text-anchor="middle" fill="#6b6b6b">2015</text>
<rect x="516.2" y="93.0" width="30.8" height="187.0" fill="#7a7a74" rx="2"/>
<rect x="549.0" y="87.5" width="30.8" height="192.5" fill="#7a7a74" rx="2"/>
<rect x="581.8" y="153.5" width="30.8" height="126.5" fill="#7a7a74" rx="2"/>
<rect x="614.6" y="148.0" width="30.8" height="132.0" fill="#7a7a74" rx="2"/>
<rect x="647.4" y="98.5" width="30.8" height="181.5" fill="#7a7a74" rx="2"/>
<text x="662.8" y="300" text-anchor="middle" fill="#6b6b6b">2020</text>
<rect x="680.2" y="203.0" width="30.8" height="77.0" fill="#7a7a74" rx="2"/>
<rect x="713.0" y="230.5" width="30.8" height="49.5" fill="#7a7a74" rx="2"/>
<rect x="745.8" y="252.5" width="30.8" height="27.5" fill="#7a7a74" rx="2"/>
<rect x="778.6" y="258.0" width="30.8" height="22.0" fill="#7a7a74" rx="2"/>
<rect x="811.4" y="274.5" width="30.8" height="5.5" fill="#7a7a74" rx="2"/>
<text x="826.8" y="300" text-anchor="middle" fill="#6b6b6b">2025</text>
<line x1="761.2" x2="761.2" y1="56" y2="280" stroke="#b31b1b" stroke-width="2" stroke-dasharray="6 4"/>
<text x="753.2" y="52" text-anchor="end" fill="#b31b1b" font-weight="600">exposed 2023</text>
<text x="56" y="324" fill="#6b6b6b" font-size="12">Source: OpenAlex, works by publication year, fetched 15 Sep 2026</text>
</svg>